# xmcd
#
# Track frame offsets: 
#        150
#        17543
#        37266
#        59402
#        77657
#        108104
#        126008
#        146085
#        168057
#        194554
#        211081
#        233840
#        252250
#        279937
#
# Disc length: 4050 seconds
#
# Revision: 0
# Processed by: cddbd v1.5.2PL0 Copyright (c) Steve Scherf et al.
# Submitted via: ExactAudioCopy v1.0b4
#
DISCID=bb0fd00e
DTITLE=Taylor Swift - Speak Now
DYEAR=2010
DGENRE=Country
TTITLE0=Mine
TTITLE1=Sparks Fly
TTITLE2=Back to December
TTITLE3=Speak Now
TTITLE4=Dear John
TTITLE5=Mean
TTITLE6=The Story of Us
TTITLE7=Never Grow Up
TTITLE8=Enchanted
TTITLE9=Better Than Revenge
TTITLE10=Innocent
TTITLE11=Haunted
TTITLE12=Last Kiss
TTITLE13=Long Live
EXTD=
EXTT0=
EXTT1=
EXTT2=
EXTT3=
EXTT4=
EXTT5=
EXTT6=
EXTT7=
EXTT8=
EXTT9=
EXTT10=
EXTT11=
EXTT12=
EXTT13=
PLAYORDER=
